<?xml version="1.0" standalone="no"?>
<!DOCTYPE svg PUBLIC "-//W3C//DTD SVG 20010904//EN"
 "http://www.w3.org/TR/2001/REC-SVG-20010904/DTD/svg10.dtd">
<svg version="1.0" xmlns="http://www.w3.org/2000/svg"
 width="300.000000pt" height="150.000000pt" viewBox="0 0 300.000000 150.000000"
 preserveAspectRatio="xMidYMid meet">
<metadata>
Created by potrace 1.10, written by Peter Selinger 2001-2011
</metadata>
<g transform="translate(0.000000,150.000000) scale(0.100000,-0.100000)"
fill="#000000" stroke="none">
<path d="M41 1204 c-30 -25 -42 -64 -21 -64 6 0 10 4 10 8 0 4 13 15 29 25 27
16 125 17 1445 17 l1415 0 36 -31 35 -31 0 25 c0 16 -11 35 -31 51 l-31 26
-1428 0 -1428 0 -31 -26z"/>
<path d="M467 982 c-15 -16 -17 -44 -17 -205 l0 -187 25 -16 c13 -8 33 -13 43
-10 11 4 32 2 48 -4 41 -16 101 -2 140 32 l35 31 35 -34 c29 -28 42 -33 77
-33 90 2 127 10 151 33 20 19 24 20 29 6 4 -8 18 -20 32 -27 22 -10 30 -8 54
10 28 20 29 21 46 2 35 -39 134 -33 180 10 l22 21 34 -28 c31 -26 39 -28 108
-25 58 2 83 7 104 23 l29 21 22 -21 c26 -25 45 -26 71 -7 16 11 21 31 25 100
7 92 12 105 34 87 10 -8 14 -33 14 -80 0 -37 5 -77 11 -89 16 -29 47 -37 76
-18 22 14 25 24 25 75 0 78 9 121 26 121 8 0 15 -10 16 -22 3 -42 6 -93 7
-120 1 -30 32 -68 55 -68 8 0 27 10 42 23 l27 23 23 -23 c13 -13 32 -23 43
-23 21 0 61 44 61 66 0 8 18 -4 39 -25 31 -31 50 -41 93 -48 47 -7 53 -11 56
-34 2 -15 14 -37 28 -49 21 -21 27 -22 48 -10 36 19 46 59 46 188 l0 114 33
-5 c18 -2 44 2 60 9 22 12 27 21 27 53 0 33 -4 40 -34 56 -33 18 -35 18 -61 1
-21 -14 -33 -15 -53 -8 -43 17 -155 24 -186 13 -15 -6 -42 -27 -60 -46 l-33
-35 -13 39 c-8 26 -9 44 -2 57 28 55 -50 111 -91 66 -20 -22 -21 -45 -6 -74 8
-14 8 -23 0 -31 -6 -6 -11 -21 -11 -34 0 -13 -2 -23 -5 -23 -3 0 -25 21 -50
46 -44 46 -45 47 -92 39 -26 -4 -61 -6 -78 -5 -60 3 -170 0 -190 -4 -12 -3
-29 -22 -39 -43 -17 -35 -19 -36 -26 -17 -15 40 -68 74 -115 74 -90 0 -135
-43 -100 -96 17 -26 16 -27 -9 -53 l-26 -26 -26 27 -27 26 22 27 c28 36 27 49
-6 75 -39 31 -113 24 -152 -14 -15 -14 -30 -26 -34 -26 -4 0 -7 31 -7 68 0 74
-16 102 -57 102 -36 0 -53 -31 -54 -101 -1 -35 -4 -75 -8 -89 -7 -24 -8 -24
-14 -4 -4 11 -21 34 -38 50 -27 26 -37 29 -94 29 -48 0 -68 -5 -84 -19 -25
-23 -27 -53 -4 -78 15 -17 15 -20 3 -28 -22 -14 -30 -12 -30 8 0 29 -47 88
-83 106 -19 9 -51 16 -71 16 -31 0 -36 4 -41 28 -15 74 -62 104 -98 64z m63
-86 l0 -74 38 20 c102 56 199 -70 143 -185 -12 -24 -33 -50 -47 -57 -38 -21
-92 -16 -120 11 l-24 22 0 -21 c0 -15 -6 -22 -20 -22 -19 0 -20 7 -20 190 l0
190 25 0 c24 0 25 -2 25 -74z m580 -116 l0 -190 -25 0 -25 0 0 190 0 190 25 0
25 0 0 -190z m1077 154 c8 -20 -21 -49 -41 -41 -9 4 -16 18 -16 32 0 20 5 25
25 25 14 0 28 -7 32 -16z m-1258 -89 c39 -19 51 -60 51 -166 0 -82 -2 -89 -20
-89 -11 0 -20 7 -20 15 0 8 -4 15 -9 15 -5 0 -14 -7 -21 -15 -18 -21 -93 -20
-112 3 -25 28 -30 59 -14 90 16 32 48 49 106 58 43 7 50 22 24 48 -18 18 -51
20 -88 6 -14 -5 -26 -8 -26 -6 0 3 -3 11 -6 20 -4 11 4 18 28 25 48 14 75 13
107 -4z m379 9 c12 -4 22 -14 22 -24 0 -15 -8 -18 -47 -17 -45 2 -48 0 -51
-24 -3 -21 3 -28 30 -39 114 -45 101 -160 -18 -160 -66 0 -83 10 -66 38 7 10
15 10 37 2 51 -19 94 5 79 45 -4 8 -26 24 -50 34 -114 51 -58 177 64 145z
m266 -23 c18 -18 22 -37 26 -131 5 -109 5 -110 -17 -110 -14 0 -23 6 -23 16 0
14 -2 14 -22 0 -30 -21 -96 -20 -120 1 -26 24 -24 87 4 113 22 20 76 40 111
40 21 0 22 23 1 44 -18 19 -57 21 -86 5 -16 -9 -23 -8 -29 2 -14 22 -11 28 24
38 46 15 106 6 131 -18z m283 3 c21 -22 27 -24 34 -11 13 22 65 40 94 33 47
-12 65 -59 65 -168 0 -98 0 -98 -25 -98 -25 0 -25 0 -25 99 0 92 -2 101 -22
115 -30 21 -44 20 -68 -4 -17 -17 -20 -33 -20 -115 0 -95 0 -95 -25 -95 -25 0
-25 0 -25 99 0 92 -2 101 -22 115 -30 21 -44 20 -68 -4 -17 -17 -20 -33 -20
-115 0 -95 0 -95 -25 -95 l-25 0 0 130 c0 123 1 130 20 130 14 0 20 -7 20 -22
1 -20 2 -21 13 -7 34 44 87 50 124 13z m576 -5 l17 -21 0 21 c0 15 6 21 23 21
l22 0 -3 -184 -3 -183 -25 5 c-25 5 -26 6 -22 72 l4 68 -25 -19 c-29 -23 -88
-25 -119 -3 -50 35 -68 125 -37 185 35 66 127 88 168 38z m187 16 c7 -8 10
-25 6 -40 -5 -20 -13 -25 -36 -25 -36 0 -56 30 -40 60 13 24 52 26 70 5z
m-440 -125 l0 -130 -25 0 -25 0 0 130 0 130 25 0 25 0 0 -130z m-956 -40 c6
-1 -7 -7 -28 -15 -22 -8 -43 -12 -47 -9 -5 3 -5 63 0 82 1 1 15 -11 32 -28 18
-16 37 -30 43 -30z"/>
<path d="M556 799 c-23 -18 -26 -28 -26 -78 0 -59 11 -80 53 -94 50 -18 105
52 92 119 -6 35 -46 74 -75 74 -10 0 -29 -9 -44 -21z m76 -43 c12 -17 9 -61
-4 -74 -14 -14 -44 -16 -52 -4 -34 56 20 131 56 78z"/>
<path d="M886 719 c-58 -9 -83 -51 -50 -83 37 -38 97 -2 92 54 -3 35 -3 35
-42 29z"/>
<path d="M1506 719 c-58 -9 -83 -51 -50 -83 37 -38 97 -2 92 54 -3 35 -3 35
-42 29z"/>
<path d="M2325 795 c-49 -48 -26 -162 33 -166 61 -4 82 19 82 93 0 45 -5 63
-20 78 -27 27 -66 25 -95 -5z m76 -44 c1 -9 2 -23 3 -31 5 -49 -47 -69 -64
-25 -11 28 1 70 22 77 20 7 38 -2 39 -21z"/>
<path d="M10 347 c0 -16 11 -35 31 -51 l31 -26 1428 0 1428 0 31 26 c20 16 31
35 31 51 l0 25 -35 -31 -36 -31 -1419 0 -1419 0 -36 31 -35 31 0 -25z"/>
</g>
</svg>
